<mxfile host="app.diagrams.net" modified="2022-04-24T11:33:17.918Z" agent="5.0 (X11; Linux x86_64) AppleWebKit/537.36 (KHTML, like Gecko) Chrome/100.0.4896.127 Safari/537.36" etag="bG6lnSmicqkw9oxWb1pS" version="17.4.6" type="github">
  <diagram id="xM8MZtgMwwrvv9BbhmBw" name="Page-1">
    <mxGraphModel dx="753" dy="449" grid="1" gridSize="1" guides="1" tooltips="1" connect="1" arrows="1" fold="1" page="1" pageScale="1" pageWidth="850" pageHeight="1100" math="0" shadow="0">
      <root>
        <mxCell id="0" />
        <mxCell id="1" parent="0" />
        <mxCell id="xh_zuBV4lSIRxmxk5H8I-3" value="Students" style="edgeStyle=orthogonalEdgeStyle;rounded=0;orthogonalLoop=1;jettySize=auto;html=1;" parent="1" source="xh_zuBV4lSIRxmxk5H8I-1" target="xh_zuBV4lSIRxmxk5H8I-2" edge="1">
          <mxGeometry relative="1" as="geometry" />
        </mxCell>
        <mxCell id="xh_zuBV4lSIRxmxk5H8I-5" value="Admin Office" style="edgeStyle=orthogonalEdgeStyle;rounded=0;orthogonalLoop=1;jettySize=auto;html=1;exitX=1;exitY=0.5;exitDx=0;exitDy=0;entryX=0;entryY=0.5;entryDx=0;entryDy=0;" parent="1" source="xh_zuBV4lSIRxmxk5H8I-1" target="xh_zuBV4lSIRxmxk5H8I-4" edge="1">
          <mxGeometry relative="1" as="geometry" />
        </mxCell>
        <mxCell id="xh_zuBV4lSIRxmxk5H8I-1" value="Open Application" style="rounded=1;whiteSpace=wrap;html=1;" parent="1" vertex="1">
          <mxGeometry x="60" y="340" width="100" height="50" as="geometry" />
        </mxCell>
        <mxCell id="xh_zuBV4lSIRxmxk5H8I-8" value="" style="edgeStyle=orthogonalEdgeStyle;rounded=0;orthogonalLoop=1;jettySize=auto;html=1;" parent="1" source="xh_zuBV4lSIRxmxk5H8I-2" target="xh_zuBV4lSIRxmxk5H8I-7" edge="1">
          <mxGeometry relative="1" as="geometry" />
        </mxCell>
        <mxCell id="xh_zuBV4lSIRxmxk5H8I-2" value="Online Application View&lt;br&gt;frmApplicants" style="whiteSpace=wrap;html=1;rounded=1;" parent="1" vertex="1">
          <mxGeometry x="250" y="280" width="120" height="60" as="geometry" />
        </mxCell>
        <mxCell id="xh_zuBV4lSIRxmxk5H8I-20" value="" style="edgeStyle=orthogonalEdgeStyle;rounded=0;orthogonalLoop=1;jettySize=auto;html=1;" parent="1" source="xh_zuBV4lSIRxmxk5H8I-4" target="xh_zuBV4lSIRxmxk5H8I-19" edge="1">
          <mxGeometry relative="1" as="geometry" />
        </mxCell>
        <mxCell id="xh_zuBV4lSIRxmxk5H8I-22" value="" style="edgeStyle=orthogonalEdgeStyle;rounded=0;orthogonalLoop=1;jettySize=auto;html=1;" parent="1" source="xh_zuBV4lSIRxmxk5H8I-4" target="xh_zuBV4lSIRxmxk5H8I-21" edge="1">
          <mxGeometry relative="1" as="geometry" />
        </mxCell>
        <mxCell id="xh_zuBV4lSIRxmxk5H8I-4" value="Application Process&lt;br&gt;View&lt;br&gt;(frmAdmin - Tabs)" style="whiteSpace=wrap;html=1;rounded=1;" parent="1" vertex="1">
          <mxGeometry x="250" y="380" width="120" height="60" as="geometry" />
        </mxCell>
        <mxCell id="xh_zuBV4lSIRxmxk5H8I-11" value="" style="edgeStyle=orthogonalEdgeStyle;rounded=0;orthogonalLoop=1;jettySize=auto;html=1;" parent="1" source="xh_zuBV4lSIRxmxk5H8I-7" target="xh_zuBV4lSIRxmxk5H8I-10" edge="1">
          <mxGeometry relative="1" as="geometry" />
        </mxCell>
        <mxCell id="xh_zuBV4lSIRxmxk5H8I-13" value="" style="edgeStyle=orthogonalEdgeStyle;rounded=0;orthogonalLoop=1;jettySize=auto;html=1;" parent="1" source="xh_zuBV4lSIRxmxk5H8I-7" target="xh_zuBV4lSIRxmxk5H8I-12" edge="1">
          <mxGeometry relative="1" as="geometry" />
        </mxCell>
        <mxCell id="xh_zuBV4lSIRxmxk5H8I-15" value="Validate" style="edgeStyle=orthogonalEdgeStyle;rounded=0;orthogonalLoop=1;jettySize=auto;html=1;entryX=1;entryY=0.5;entryDx=0;entryDy=0;startArrow=classic;startFill=1;" parent="1" source="xh_zuBV4lSIRxmxk5H8I-7" target="xh_zuBV4lSIRxmxk5H8I-14" edge="1">
          <mxGeometry relative="1" as="geometry" />
        </mxCell>
        <mxCell id="xh_zuBV4lSIRxmxk5H8I-7" value="Create Account /&lt;br&gt;Login" style="whiteSpace=wrap;html=1;rounded=1;" parent="1" vertex="1">
          <mxGeometry x="250" y="170" width="120" height="60" as="geometry" />
        </mxCell>
        <mxCell id="xh_zuBV4lSIRxmxk5H8I-25" value="" style="edgeStyle=orthogonalEdgeStyle;rounded=0;orthogonalLoop=1;jettySize=auto;html=1;" parent="1" source="xh_zuBV4lSIRxmxk5H8I-10" target="xh_zuBV4lSIRxmxk5H8I-24" edge="1">
          <mxGeometry relative="1" as="geometry" />
        </mxCell>
        <mxCell id="CMS65xeeMLMY94xMYHbu-3" style="edgeStyle=orthogonalEdgeStyle;rounded=0;orthogonalLoop=1;jettySize=auto;html=1;entryX=0.5;entryY=0;entryDx=0;entryDy=0;startArrow=classic;startFill=1;endArrow=none;endFill=0;exitX=0.642;exitY=1.017;exitDx=0;exitDy=0;exitPerimeter=0;" edge="1" parent="1" source="xh_zuBV4lSIRxmxk5H8I-24" target="CMS65xeeMLMY94xMYHbu-2">
          <mxGeometry relative="1" as="geometry">
            <mxPoint x="350" y="80" as="targetPoint" />
            <Array as="points" />
          </mxGeometry>
        </mxCell>
        <mxCell id="xh_zuBV4lSIRxmxk5H8I-10" value="Create application" style="whiteSpace=wrap;html=1;rounded=1;" parent="1" vertex="1">
          <mxGeometry x="430" y="120" width="120" height="60" as="geometry" />
        </mxCell>
        <mxCell id="xh_zuBV4lSIRxmxk5H8I-18" value="" style="edgeStyle=orthogonalEdgeStyle;rounded=0;orthogonalLoop=1;jettySize=auto;html=1;" parent="1" source="xh_zuBV4lSIRxmxk5H8I-12" target="xh_zuBV4lSIRxmxk5H8I-17" edge="1">
          <mxGeometry relative="1" as="geometry" />
        </mxCell>
        <mxCell id="xh_zuBV4lSIRxmxk5H8I-12" value="Edit Application" style="whiteSpace=wrap;html=1;rounded=1;" parent="1" vertex="1">
          <mxGeometry x="430" y="190" width="120" height="60" as="geometry" />
        </mxCell>
        <mxCell id="xh_zuBV4lSIRxmxk5H8I-14" value="SQl&lt;br&gt;tblUsers" style="shape=datastore;whiteSpace=wrap;html=1;" parent="1" vertex="1">
          <mxGeometry x="80" y="165" width="70" height="70" as="geometry" />
        </mxCell>
        <mxCell id="CMS65xeeMLMY94xMYHbu-11" style="edgeStyle=orthogonalEdgeStyle;rounded=0;orthogonalLoop=1;jettySize=auto;html=1;entryX=0;entryY=0.5;entryDx=0;entryDy=0;startArrow=none;startFill=0;endArrow=classic;endFill=1;strokeWidth=1.1;" edge="1" parent="1" source="xh_zuBV4lSIRxmxk5H8I-17" target="xh_zuBV4lSIRxmxk5H8I-28">
          <mxGeometry relative="1" as="geometry" />
        </mxCell>
        <mxCell id="xh_zuBV4lSIRxmxk5H8I-17" value="Submit final" style="whiteSpace=wrap;html=1;rounded=1;" parent="1" vertex="1">
          <mxGeometry x="430" y="290" width="120" height="60" as="geometry" />
        </mxCell>
        <mxCell id="CMS65xeeMLMY94xMYHbu-5" style="edgeStyle=orthogonalEdgeStyle;rounded=0;orthogonalLoop=1;jettySize=auto;html=1;entryX=1;entryY=0.5;entryDx=0;entryDy=0;startArrow=classic;startFill=1;endArrow=classic;endFill=1;" edge="1" parent="1" source="xh_zuBV4lSIRxmxk5H8I-19" target="CMS65xeeMLMY94xMYHbu-4">
          <mxGeometry relative="1" as="geometry" />
        </mxCell>
        <mxCell id="xh_zuBV4lSIRxmxk5H8I-19" value="Edit courses&lt;br&gt;tabCourses" style="whiteSpace=wrap;html=1;rounded=1;" parent="1" vertex="1">
          <mxGeometry x="250" y="470" width="120" height="60" as="geometry" />
        </mxCell>
        <mxCell id="xh_zuBV4lSIRxmxk5H8I-21" value="View submissions&lt;br&gt;tabBrowse" style="whiteSpace=wrap;html=1;rounded=1;" parent="1" vertex="1">
          <mxGeometry x="430" y="380" width="120" height="60" as="geometry" />
        </mxCell>
        <mxCell id="xh_zuBV4lSIRxmxk5H8I-26" value="Load" style="edgeStyle=orthogonalEdgeStyle;rounded=0;orthogonalLoop=1;jettySize=auto;html=1;entryX=1;entryY=0.5;entryDx=0;entryDy=0;exitX=0.205;exitY=0.994;exitDx=0;exitDy=0;exitPerimeter=0;strokeWidth=1;" parent="1" source="xh_zuBV4lSIRxmxk5H8I-24" target="xh_zuBV4lSIRxmxk5H8I-12" edge="1">
          <mxGeometry x="0.2727" relative="1" as="geometry">
            <Array as="points">
              <mxPoint x="615" y="220" />
            </Array>
            <mxPoint x="610" y="180" as="sourcePoint" />
            <mxPoint as="offset" />
          </mxGeometry>
        </mxCell>
        <mxCell id="xh_zuBV4lSIRxmxk5H8I-24" value="Select course" style="whiteSpace=wrap;html=1;rounded=1;" parent="1" vertex="1">
          <mxGeometry x="590" y="120" width="120" height="60" as="geometry" />
        </mxCell>
        <mxCell id="CMS65xeeMLMY94xMYHbu-9" style="edgeStyle=orthogonalEdgeStyle;rounded=0;orthogonalLoop=1;jettySize=auto;html=1;entryX=0.202;entryY=1;entryDx=0;entryDy=0;startArrow=none;startFill=0;endArrow=none;endFill=0;entryPerimeter=0;strokeWidth=1.1;exitX=0.568;exitY=0.017;exitDx=0;exitDy=0;exitPerimeter=0;" edge="1" parent="1" source="xh_zuBV4lSIRxmxk5H8I-28" target="xh_zuBV4lSIRxmxk5H8I-24">
          <mxGeometry relative="1" as="geometry">
            <mxPoint x="630" y="280" as="sourcePoint" />
            <Array as="points">
              <mxPoint x="614" y="286" />
            </Array>
          </mxGeometry>
        </mxCell>
        <mxCell id="CMS65xeeMLMY94xMYHbu-12" style="edgeStyle=orthogonalEdgeStyle;rounded=0;orthogonalLoop=1;jettySize=auto;html=1;startArrow=none;startFill=0;endArrow=classic;endFill=1;strokeWidth=1.1;" edge="1" parent="1" source="xh_zuBV4lSIRxmxk5H8I-28">
          <mxGeometry relative="1" as="geometry">
            <mxPoint x="551" y="410" as="targetPoint" />
            <Array as="points">
              <mxPoint x="613" y="410" />
            </Array>
          </mxGeometry>
        </mxCell>
        <mxCell id="xh_zuBV4lSIRxmxk5H8I-28" value="SQL&lt;br&gt;tblApplic" style="shape=datastore;whiteSpace=wrap;html=1;" parent="1" vertex="1">
          <mxGeometry x="580" y="285" width="70" height="70" as="geometry" />
        </mxCell>
        <mxCell id="CMS65xeeMLMY94xMYHbu-2" value="SQl&lt;br&gt;tblCources" style="shape=datastore;whiteSpace=wrap;html=1;" vertex="1" parent="1">
          <mxGeometry x="632" y="205" width="70" height="70" as="geometry" />
        </mxCell>
        <mxCell id="CMS65xeeMLMY94xMYHbu-4" value="SQl&lt;br&gt;tblCources" style="shape=datastore;whiteSpace=wrap;html=1;" vertex="1" parent="1">
          <mxGeometry x="110" y="465" width="70" height="70" as="geometry" />
        </mxCell>
      </root>
    </mxGraphModel>
  </diagram>
</mxfile>
